<?xml version="1.0" standalone="no"?>
<!DOCTYPE svg PUBLIC "-//W3C//DTD SVG 20010904//EN"
 "http://www.w3.org/TR/2001/REC-SVG-20010904/DTD/svg10.dtd">
<svg version="1.0" xmlns="http://www.w3.org/2000/svg"
 width="50.000000pt" height="50.000000pt" viewBox="0 0 50.000000 50.000000"
 preserveAspectRatio="xMidYMid meet">

<g transform="translate(0.000000,50.000000) scale(0.100000,-0.100000)"
fill="#FFFFFF" stroke="none">
<path d="M256 445 c-20 -20 -21 -75 -1 -101 22 -29 18 -40 -20 -63 -56 -33
-44 -41 60 -41 104 0 116 8 60 41 -38 23 -42 34 -20 63 18 24 20 80 2 94 -25
21 -63 24 -81 7z"/>
<path d="M380 210 c-35 -23 -44 -34 -42 -53 5 -43 -20 -52 -93 -32 -36 9 -68
21 -71 26 -8 13 16 11 75 -7 38 -11 57 -12 64 -5 16 16 3 25 -82 61 -79 34
-106 35 -174 6 l-37 -15 0 -71 c0 -40 3 -70 8 -68 4 2 23 12 43 22 36 18 37
18 115 -8 44 -14 84 -26 91 -26 6 0 54 32 107 71 94 69 110 91 84 117 -18 18
-38 14 -88 -18z"/>
</g>
</svg>
